# xmcd CD database file
#
# Track frame offsets:
#	150
#	39248
#	86512
#
# Disc length: 2356 seconds
#
# Revision: 1
# Processed by: cddbd v1.5.2PL0 Copyright (c) Steve Scherf et al.
# Submitted via: CDex 1.51
#
DISCID=16093203
DTITLE=Herbie Mann - Herbie Mann At The Village Gate
DYEAR=1988
DGENRE=Jazz
TTITLE0=Comin' Home Baby
TTITLE1=Summertime
TTITLE2=It Ain't Necessarily So
EXTD=YEAR: 1988
EXTT0=
EXTT1=
EXTT2=
PLAYORDER=
